General
Complete name                            : ../.././Samples/BP_Parade_X_FINAL_Video-Thl.mpeg
Format                                   : MPEG-PS
File size                                : 54.9 MiB
Duration                                 : 3 min 38 s
Overall bit rate mode                    : Variable
Overall bit rate                         : 2 103 kb/s

Video
ID                                       : 224 (0xE0)
Format                                   : MPEG Video
Format version                           : Version 2
Format profile                           : Main@Main
Format settings                          : BVOP
Format settings, BVOP                    : Yes
Format settings, Matrix                  : Default
Format settings, GOP                     : M=3, N=15
Format settings, picture structure       : Frame
Duration                                 : 3 min 38 s
Bit rate mode                            : Variable
Bit rate                                 : 1 838 kb/s
Maximum bit rate                         : 2 376 kb/s
Width                                    : 480 pixels
Height                                   : 576 pixels
Display aspect ratio                     : 4:3
Frame rate                               : 25.000 FPS
Color space                              : YUV
Chroma subsampling                       : 4:2:0
Bit depth                                : 8 bits
Scan type                                : Interlaced
Scan order                               : Top Field First
Compression mode                         : Lossy
Bits/(Pixel*Frame)                       : 0.266
Time code of first frame                 : 00:00:00:00
Time code source                         : Group of pictures header
GOP, Open/Closed                         : Open
GOP, Open/Closed of first frame          : Closed
Stream size                              : 47.9 MiB (87%)

Audio
ID                                       : 192 (0xC0)
Format                                   : MPEG Audio
Format version                           : Version 1
Format profile                           : Layer 2
Duration                                 : 3 min 38 s
Bit rate mode                            : Constant
Bit rate                                 : 224 kb/s
Channel(s)                               : 2 channels
Sampling rate                            : 44.1 kHz
Frame rate                               : 38.281 FPS (1152 SPF)
Compression mode                         : Lossy
Stream size                              : 5.84 MiB (11%)


General
Complete name                            : ../.././Samples/BP_Parade_X_FINAL_Video-Thl.mpeg
Format                                   : MPEG-PS
File size                                : 54.9 MiB
Duration                                 : 3 min 38 s
Overall bit rate mode                    : Variable
Overall bit rate                         : 2 103 kb/s

Video
ID                                       : 224 (0xE0)
Format                                   : MPEG Video
Format version                           : Version 2
Format profile                           : Main@Main
Format settings                          : BVOP
Format settings, BVOP                    : Yes
Format settings, Matrix                  : Default
Format settings, GOP                     : M=3, N=15
Format settings, picture structure       : Frame
Duration                                 : 3 min 38 s
Bit rate mode                            : Variable
Bit rate                                 : 1 838 kb/s
Maximum bit rate                         : 2 376 kb/s
Width                                    : 480 pixels
Height                                   : 576 pixels
Display aspect ratio                     : 4:3
Frame rate                               : 25.000 FPS
Color space                              : YUV
Chroma subsampling                       : 4:2:0
Bit depth                                : 8 bits
Scan type                                : Interlaced
Scan order                               : Top Field First
Compression mode                         : Lossy
Bits/(Pixel*Frame)                       : 0.266
Time code of first frame                 : 00:00:00:00
Time code source                         : Group of pictures header
GOP, Open/Closed                         : Open
GOP, Open/Closed of first frame          : Closed
Stream size                              : 47.9 MiB (87%)

Audio
ID                                       : 192 (0xC0)
Format                                   : MPEG Audio
Format version                           : Version 1
Format profile                           : Layer 2
Duration                                 : 3 min 38 s
Bit rate mode                            : Constant
Bit rate                                 : 224 kb/s
Channel(s)                               : 2 channels
Sampling rate                            : 44.1 kHz
Frame rate                               : 38.281 FPS (1152 SPF)
Compression mode                         : Lossy
Stream size                              : 5.84 MiB (11%)


